HIERARCHY
ROOT hip
{
  OFFSET 0 0 0
  CHANNELS 6 Xposition Yposition Zposition Zrotation Yrotation Xrotation
  JOINT abdomen
  {
    OFFSET 0 20.6881 -0.73152
    CHANNELS 3 Zrotation Xrotation Yrotation
    JOINT chest
    {
      OFFSET 0 11.7043 -0.48768
      CHANNELS 3 Zrotation Xrotation Yrotation
      JOINT neck
      {
        OFFSET 0 22.1894 -2.19456
        CHANNELS 3 Zrotation Xrotation Yrotation
        JOINT head
        {
          OFFSET -0.24384 7.07133 1.2192
          CHANNELS 3 Zrotation Xrotation Yrotation
          JOINT leftEye
          {
            OFFSET 4.14528 8.04674 8.04672
            CHANNELS 3 Zrotation Xrotation Yrotation
            End Site
            {
              OFFSET 1 0 0
            }
          }
          JOINT rightEye
          {
            OFFSET -3.6576 8.04674 8.04672
            CHANNELS 3 Zrotation Xrotation Yrotation
            End Site
            {
              OFFSET 1 0 0
            }
          }
        }
      }
      JOINT rCollar
      {
        OFFSET -2.68224 19.2634 -4.8768
        CHANNELS 3 Zrotation Xrotation Yrotation
        JOINT rShldr
        {
          OFFSET -8.77824 -1.95073 1.46304
          CHANNELS 3 Zrotation Xrotation Yrotation
          JOINT rForeArm
          {
            OFFSET -28.1742 -1.7115 0.48768
            CHANNELS 3 Zrotation Xrotation Yrotation
            JOINT rHand
            {
              OFFSET -22.5879 0.773209 7.07136
              CHANNELS 3 Zrotation Xrotation Yrotation
              JOINT rThumb1
              {
                OFFSET -1.2192 -0.487915 3.41376
                CHANNELS 3 Zrotation Xrotation Yrotation
                JOINT rThumb2
                {
                  OFFSET -3.37035 -0.52449 3.41376
                  CHANNELS 3 Zrotation Xrotation Yrotation
                  End Site
                  {
                    OFFSET -1.78271 -1.18214 1.43049
                  }
                }
              }
              JOINT rIndex1
              {
                OFFSET -7.75947 0.938293 5.60832
                CHANNELS 3 Zrotation Xrotation Yrotation
                JOINT rIndex2
                {
                  OFFSET -2.54057 -0.884171 1.56538
                  CHANNELS 3 Zrotation Xrotation Yrotation
                  End Site
                  {
                    OFFSET -1.62519 -0.234802 1.16502
                  }
                }
              }
              JOINT rMid1
              {
                OFFSET -8.24714 1.18213 3.41376
                CHANNELS 3 Zrotation Xrotation Yrotation
                JOINT rMid2
                {
                  OFFSET -3.10165 -0.590103 1.0647
                  CHANNELS 3 Zrotation Xrotation Yrotation
                  End Site
                  {
                    OFFSET -2.48547 -0.328903 0.83742
                  }
                }
              }
              JOINT rRing1
              {
                OFFSET -8.82822 0.546677 1.51678
                CHANNELS 3 Zrotation Xrotation Yrotation
                JOINT rRing2
                {
                  OFFSET -2.60934 -0.819778 -0.0198488
                  CHANNELS 3 Zrotation Xrotation Yrotation
                  End Site
                  {
                    OFFSET -2.33842 -0.294052 0.168128
                  }
                }
              }
              JOINT rPinky1
              {
                OFFSET -8.27202 -0.0477905 -0.4584
                CHANNELS 3 Zrotation Xrotation Yrotation
                JOINT rPinky2
                {
                  OFFSET -1.82734 -0.647385 -0.700984
                  CHANNELS 3 Zrotation Xrotation Yrotation
                  End Site
                  {
                    OFFSET -1.69225 -0.51767 -0.607171
                  }
                }
              }
            }
          }
        }
      }
      JOINT lCollar
      {
        OFFSET 2.68224 19.2634 -4.8768
        CHANNELS 3 Zrotation Xrotation Yrotation
        JOINT lShldr
        {
          OFFSET 8.77824 -1.95073 1.46304
          CHANNELS 3 Zrotation Xrotation Yrotation
          JOINT lForeArm
          {
            OFFSET 28.1742 -1.7115 0.48768
            CHANNELS 3 Zrotation Xrotation Yrotation
            JOINT lHand
            {
              OFFSET 22.5879 0.773209 7.07136
              CHANNELS 3 Zrotation Xrotation Yrotation
              JOINT lThumb1
              {
                OFFSET 1.2192 -0.487915 3.41376
                CHANNELS 3 Zrotation Xrotation Yrotation
                JOINT lThumb2
                {
                  OFFSET 3.37035 -0.52449 3.41376
                  CHANNELS 3 Zrotation Xrotation Yrotation
                  End Site
                  {
                    OFFSET 1.78271 -1.18214 1.43049
                  }
                }
              }
              JOINT lIndex1
              {
                OFFSET 7.75947 0.938293 5.60832
                CHANNELS 3 Zrotation Xrotation Yrotation
                JOINT lIndex2
                {
                  OFFSET 2.54057 -0.884171 1.56538
                  CHANNELS 3 Zrotation Xrotation Yrotation
                  End Site
                  {
                    OFFSET 1.62519 -0.234802 1.16502
                  }
                }
              }
              JOINT lMid1
              {
                OFFSET 8.24714 1.18213 3.41376
                CHANNELS 3 Zrotation Xrotation Yrotation
                JOINT lMid2
                {
                  OFFSET 3.10165 -0.590103 1.0647
                  CHANNELS 3 Zrotation Xrotation Yrotation
                  End Site
                  {
                    OFFSET 2.48547 -0.328903 0.83742
                  }
                }
              }
              JOINT lRing1
              {
                OFFSET 8.82822 0.546677 1.51678
                CHANNELS 3 Zrotation Xrotation Yrotation
                JOINT lRing2
                {
                  OFFSET 2.60934 -0.819778 -0.0198488
                  CHANNELS 3 Zrotation Xrotation Yrotation
                  End Site
                  {
                    OFFSET 2.33842 -0.294052 0.168128
                  }
                }
              }
              JOINT lPinky1
              {
                OFFSET 8.27202 -0.0477905 -0.4584
                CHANNELS 3 Zrotation Xrotation Yrotation
                JOINT lPinky2
                {
                  OFFSET 1.82734 -0.647385 -0.700984
                  CHANNELS 3 Zrotation Xrotation Yrotation
                  End Site
                  {
                    OFFSET 1.69225 -0.51767 -0.607171
                  }
                }
              }
            }
          }
        }
      }
    }
  }
  JOINT rButtock
  {
    OFFSET -8.77824 4.35084 1.2192
    CHANNELS 3 Zrotation Xrotation Yrotation
    JOINT rThigh
    {
      OFFSET 0 -1.70687 -2.19456
      CHANNELS 3 Zrotation Xrotation Yrotation
      JOINT rShin
      {
        OFFSET 0 -36.8199 0.73152
        CHANNELS 3 Zrotation Xrotation Yrotation
        JOINT rFoot
        {
          OFFSET 0.73152 -45.1104 -5.12064
          CHANNELS 3 Zrotation Xrotation Yrotation
          End Site
          {
            OFFSET -1.1221 -3.69964 12.103
          }
        }
      }
    }
  }
  JOINT lButtock
  {
    OFFSET 8.77824 4.35084 1.2192
    CHANNELS 3 Zrotation Xrotation Yrotation
    JOINT lThigh
    {
      OFFSET 0 -1.70687 -2.19456
      CHANNELS 3 Zrotation Xrotation Yrotation
      JOINT lShin
      {
        OFFSET 0 -36.8199 0.73152
        CHANNELS 3 Zrotation Xrotation Yrotation
        JOINT lFoot
        {
          OFFSET -0.73152 -45.1104 -5.12064
          CHANNELS 3 Zrotation Xrotation Yrotation
          End Site
          {
            OFFSET 1.1221 -3.69964 12.103
          }
        }
      }
    }
  }
}
MOTION
Frames:	7
Frame Time:	0.00833333
56.3304 46.4892 -13.6668 10.3737 8.8024 23.5102 32.4206 60.3057 -19.3045 -1.56393 -6.15761 -0.0183328 -5.91218 2.11571 -10.6633 10.7685 -32.3505 -17.8243 -0.0 0.0 0.0 -0.0 0.0 0.0 -2.97094e-14 8.45603e-15 -3.4628e-13 19.6665 -5.03856 55.1995 -17.6646 -10.3301 33.2738 -0.00371823 1.71541 0.241167 1.09656e-09 -7.325e-11 4.42283e-10 1.89534e-09 -1.20207e-10 7.62291e-10 1.09656e-09 -7.32477e-11 4.42278e-10 7.73091 5.47488 0.417314 1.09655e-09 -7.32489e-11 4.42278e-10 2.90554 0.965183 0.102902 1.09656e-09 -7.32497e-11 4.4228e-10 10.2786 0.731801 0.0259123 1.09655e-09 -7.32504e-11 4.42285e-10 2.22167 -0.733487 -0.20892 -2.97819e-14 8.44011e-15 -3.46413e-13 -62.1363 39.122 -29.5768 25.1126 -21.3396 -53.3514 2.21535 -38.3033 6.37327 1.06512e-09 -1.1848e-10 -1.24207e-09 1.87249e-09 -2.03173e-10 -2.10885e-09 1.06512e-09 -1.18478e-10 -1.24206e-09 -7.73091 5.47488 -0.417314 1.06512e-09 -1.18479e-10 -1.24207e-09 -2.90554 0.965183 -0.102902 1.06511e-09 -1.1848e-10 -1.24207e-09 -10.2786 0.731801 -0.0259123 1.06512e-09 -1.18477e-10 -1.24208e-09 -2.22167 -0.733487 0.20892 -2.03217e-16 0.0 -3.88251e-19 -158.967 -60.855 -143.761 -174.557 75.5879 174.775 -0.884056 -6.9928 -0.899906 2.03217e-16 0.0 3.88251e-19 -139.639 -78.8479 -115.107 176.662 71.2796 -179.997 28.8736 -21.9096 41.3599
56.2621 46.1449 -13.6294 10.1305 9.3104 23.3326 33.0577 60.3388 -19.7202 -1.39771 -6.18327 -0.00845264 -6.05861 2.14117 -10.7316 10.7083 -32.0623 -17.9538 -0.0 0.0 0.0 -0.0 0.0 0.0 8.93197e-14 -2.55725e-14 -2.96978e-13 19.6228 -4.90125 55.0014 -17.7047 -10.3723 33.3624 -0.00508858 2.00289 0.281615 2.588e-10 -1.16135e-09 1.025e-09 4.47174e-10 -2.01212e-09 1.77603e-09 2.58801e-10 -1.16135e-09 1.02499e-09 7.73091 5.47488 0.417314 2.588e-10 -1.16135e-09 1.02499e-09 2.90554 0.965183 0.102902 2.58808e-10 -1.16135e-09 1.02499e-09 10.2786 0.731801 0.0259123 2.58797e-10 -1.16135e-09 1.02499e-09 2.22167 -0.733487 -0.20892 8.92473e-14 -2.55903e-14 -2.97117e-13 -62.3238 39.1294 -29.6438 25.1244 -21.3655 -53.3935 2.20118 -38.2034 6.35036 3.63319e-10 -8.79561e-11 -1.46842e-09 6.73515e-10 -1.54241e-10 -2.52353e-09 3.63317e-10 -8.79539e-11 -1.46841e-09 -7.73091 5.47488 -0.417314 3.63321e-10 -8.79553e-11 -1.46842e-09 -2.90554 0.965183 -0.102902 3.63314e-10 -8.79557e-11 -1.46842e-09 -10.2786 0.731801 -0.0259123 3.63325e-10 -8.79543e-11 -1.46844e-09 -2.22167 -0.733487 0.20892 -2.03217e-16 0.0 -3.88251e-19 -158.792 -60.6867 -143.695 -174.697 75.097 174.911 -0.886704 -7.10866 -0.89166 2.03217e-16 0.0 3.88251e-19 -140.106 -78.6371 -115.643 176.734 70.7322 179.907 28.937 -21.9537 41.3105
56.2154 45.8977 -13.5583 9.9041 9.5694 22.9963 33.6321 60.3647 -20.1307 -1.29264 -6.14517 -0.00926842 -6.26267 2.08387 -10.7843 10.8514 -31.7939 -17.9727 -0.0 0.0 0.0 -0.0 0.0 0.0 1.49524e-13 -2.86161e-14 -2.22142e-13 19.7299 -4.84842 54.8641 -17.767 -10.4384 33.4996 -0.00670885 2.33801 0.32877 -2.19773e-10 -1.73664e-09 1.25171e-09 -3.80091e-10 -3.01214e-09 2.17094e-09 -2.19772e-10 -1.73664e-09 1.25171e-09 7.73091 5.47488 0.417314 -2.19773e-10 -1.73664e-09 1.2517e-09 2.90554 0.965183 0.102902 -2.19763e-10 -1.73664e-09 1.2517e-09 10.2786 0.731801 0.0259123 -2.19778e-10 -1.73664e-09 1.25171e-09 2.22167 -0.733487 -0.20892 1.49458e-13 -2.86345e-14 -2.22291e-13 -62.3776 39.0829 -29.815 25.1304 -21.3786 -53.415 2.19462 -38.1568 6.33972 -8.85111e-11 -4.87364e-11 -1.34819e-09 -1.06923e-10 -8.83176e-11 -2.33152e-09 -8.85136e-11 -4.87344e-11 -1.34818e-09 -7.73091 5.47488 -0.417314 -8.851e-11 -4.87358e-11 -1.34819e-09 -2.90554 0.965183 -0.102902 -8.85161e-11 -4.87361e-11 -1.34819e-09 -10.2786 0.731801 -0.0259123 -8.85061e-11 -4.87352e-11 -1.34821e-09 -2.22167 -0.733487 0.20892 -2.03217e-16 0.0 -3.88251e-19 -158.644 -60.55 -143.613 -174.812 74.6658 175.024 -0.883691 -7.27441 -0.870005 2.03217e-16 0.0 3.88251e-19 -140.325 -78.4535 -115.915 176.792 70.2752 179.823 29.0319 -21.9391 41.3456
56.1747 45.7336 -13.4543 9.6598 9.577 22.4988 34.2066 60.3853 -20.6215 -1.26197 -6.00704 -0.0313111 -6.61046 1.87986 -10.8116 11.3529 -31.5248 -17.7912 -0.0 0.0 0.0 -0.0 0.0 0.0 1.16211e-13 2.26699e-14 -9.25253e-14 19.9615 -4.93649 54.8705 -17.8208 -10.4923 33.6282 -0.00901758 2.78025 0.39102 -1.55255e-10 -1.50525e-09 9.00432e-10 -2.68579e-10 -2.60926e-09 1.56132e-09 -1.55253e-10 -1.50525e-09 9.00428e-10 7.73091 5.47488 0.417314 -1.55254e-10 -1.50525e-09 9.00422e-10 2.90554 0.965183 0.102902 -1.55244e-10 -1.50525e-09 9.00424e-10 10.2786 0.731801 0.0259123 -1.5526e-10 -1.50525e-09 9.0043e-10 2.22167 -0.733487 -0.20892 1.16162e-13 2.26526e-14 -9.26969e-14 -62.2551 38.939 -30.1481 25.1275 -21.3722 -53.4045 2.19856 -38.1847 6.34609 -1.80354e-10 7.36508e-12 -6.45398e-10 -2.87316e-10 9.8343e-12 -1.12181e-09 -1.80356e-10 7.36609e-12 -6.45383e-10 -7.73091 5.47488 -0.417314 -1.80353e-10 7.36556e-12 -6.45398e-10 -2.90554 0.965183 -0.102902 -1.80359e-10 7.36522e-12 -6.454e-10 -10.2786 0.731801 -0.0259123 -1.8035e-10 7.36616e-12 -6.45416e-10 -2.22167 -0.733487 0.20892 -2.03217e-16 0.0 -3.88251e-19 -158.502 -60.4431 -143.476 -174.907 74.2948 175.116 -0.8669 -7.54168 -0.813701 2.03217e-16 0.0 3.88251e-19 -140.156 -78.2838 -115.787 176.838 69.9275 179.747 29.1968 -21.8565 41.5157
56.1511 45.543 -13.4419 9.6034 9.9134 22.4563 34.7813 60.3885 -21.1577 -1.29234 -5.79405 -0.0673656 -7.05369 1.56542 -10.8249 12.0945 -31.2394 -17.4826 -0.0 0.0 0.0 -0.0 0.0 0.0 2.71612e-14 1.07152e-13 8.30205e-14 20.3032 -5.12705 54.9882 -17.8681 -10.5374 33.749 -0.0126785 3.30735 0.465293 2.00701e-10 -7.90913e-10 1.89463e-10 3.46708e-10 -1.36668e-09 3.26717e-10 2.00703e-10 -7.90914e-10 1.89459e-10 7.73091 5.47488 0.417314 2.00701e-10 -7.90916e-10 1.89454e-10 2.90554 0.965183 0.102902 2.00712e-10 -7.90915e-10 1.89457e-10 10.2786 0.731801 0.0259123 2.00694e-10 -7.90915e-10 1.89465e-10 2.22167 -0.733487 -0.20892 2.71369e-14 1.07137e-13 8.28156e-14 -62.0119 38.7141 -30.587 25.121 -21.3579 -53.3809 2.20949 -38.2618 6.36376 -9.24941e-11 7.76046e-11 4.48136e-10 -1.71434e-10 1.34158e-10 7.68442e-10 -9.24963e-11 7.76041e-11 4.48153e-10 -7.73091 5.47488 -0.417314 -9.24927e-11 7.7605e-11 4.48137e-10 -2.90554 0.965183 -0.102902 -9.24983e-11 7.76045e-11 4.48136e-10 -10.2786 0.731801 -0.0259123 -9.24908e-11 7.76058e-11 4.48122e-10 -2.22167 -0.733487 0.20892 -2.03217e-16 0.0 -3.88251e-19 -158.364 -60.3686 -143.319 -174.984 73.9775 175.191 -0.840879 -7.88431 -0.736271 2.03217e-16 0.0 3.88251e-19 -139.767 -78.1286 -115.448 176.875 69.6586 179.677 29.3924 -21.7216 41.7636
56.1515 45.4104 -13.4425 9.6738 10.0356 22.453 35.2129 60.3797 -21.5718 -1.36369 -5.56889 -0.0991222 -7.43521 1.25726 -10.8381 12.8094 -30.9937 -17.1971 -0.0 0.0 0.0 -0.0 0.0 0.0 -6.79024e-14 1.88156e-13 2.45333e-13 20.8231 -5.32458 55.0548 -17.9752 -10.6512 33.9904 -0.0172379 3.80217 0.53512 6.2304e-10 -1.20427e-11 -5.45433e-10 1.07681e-09 -1.17609e-11 -9.49693e-10 6.23043e-10 -1.20445e-11 -5.45439e-10 7.73091 5.47488 0.417314 6.23039e-10 -1.20452e-11 -5.45441e-10 2.90554 0.965183 0.102902 6.23051e-10 -1.20439e-11 -5.45437e-10 10.2786 0.731801 0.0259123 6.23033e-10 -1.20426e-11 -5.45427e-10 2.22167 -0.733487 -0.20892 -6.79034e-14 1.88144e-13 2.45098e-13 -61.707 38.4921 -31.0406 25.114 -21.3426 -53.3557 2.22346 -38.3599 6.3863 6.27379e-11 1.45621e-10 1.54532e-09 6.01646e-11 2.54915e-10 2.66732e-09 6.27361e-11 1.45619e-10 1.54534e-09 -7.73091 5.47488 -0.417314 6.27395e-11 1.45621e-10 1.54532e-09 -2.90554 0.965183 -0.102902 6.27342e-11 1.45621e-10 1.54532e-09 -10.2786 0.731801 -0.0259123 6.27404e-11 1.45623e-10 1.54531e-09 -2.22167 -0.733487 0.20892 -2.03217e-16 0.0 -3.88251e-19 -158.279 -60.3283 -143.202 -175.045 73.7175 175.251 -0.819683 -8.20576 -0.675282 2.03217e-16 0.0 3.88251e-19 -139.389 -78.0188 -115.109 176.905 69.4489 179.62 29.5597 -21.5436 42.0188
56.1519 45.304 -13.4205 9.7197 10.1526 22.3495 35.3586 60.366 -21.697 -1.45636 -5.39426 -0.10831 -7.59804 1.07214 -10.8644 13.2353 -30.8457 -17.0827 -0.0 0.0 0.0 -0.0 0.0 0.0 -1.19255e-13 2.29005e-13 3.3525e-13 21.5873 -5.43675 54.9058 -18.205 -10.9088 34.4818 -0.0211445 4.14757 0.583933 8.8671e-10 4.12963e-10 -9.68498e-10 1.53275e-09 7.2814e-10 -1.68476e-09 8.86713e-10 4.12961e-10 -9.68504e-10 7.73091 5.47488 0.417314 8.86709e-10 4.12962e-10 -9.68504e-10 2.90554 0.965183 0.102902 8.8672e-10 4.12963e-10 -9.685e-10 10.2786 0.731801 0.0259123 8.86703e-10 4.12966e-10 -9.68488e-10 2.22167 -0.733487 -0.20892 -1.19245e-13 2.28996e-13 3.35002e-13 -61.3953 38.3574 -31.4208 25.1096 -21.333 -53.3399 2.23647 -38.4508 6.40723 1.73012e-10 1.95054e-10 2.25905e-09 2.26927e-10 3.42368e-10 3.90291e-09 1.73011e-10 1.95051e-10 2.25907e-09 -7.73091 5.47488 -0.417314 1.73014e-10 1.95054e-10 2.25905e-09 -2.90554 0.965183 -0.102902 1.73009e-10 1.95054e-10 2.25905e-09 -10.2786 0.731801 -0.0259123 1.73014e-10 1.95055e-10 2.25904e-09 -2.22167 -0.733487 0.20892 -2.03217e-16 0.0 -3.88251e-19 -158.298 -60.3245 -143.185 -175.09 73.5187 175.296 -0.818555 -8.40949 -0.668438 2.03217e-16 0.0 3.88251e-19 -139.243 -77.9864 -114.966 176.926 69.2787 179.583 29.6401 -21.3322 42.2109
